<svg width="315" height="315" viewBox="0 0 315 315" fill="none" xmlns="http://www.w3.org/2000/svg">
<g id="Yellow">
<g id="YellowStick" filter="url(#filter0_b_0_1)">
<path d="M208.597 63.5355C210.549 61.5829 213.715 61.5829 215.668 63.5355L251.023 98.8909C252.976 100.843 252.976 104.009 251.023 105.962L45.9619 311.023C44.0093 312.976 40.8435 312.976 38.8909 311.023L3.53554 275.668C1.58292 273.715 1.58292 270.549 3.53554 268.596L208.597 63.5355Z" fill="#474D77"/>
<path d="M208.597 63.5355C210.549 61.5829 213.715 61.5829 215.668 63.5355L251.023 98.8909C252.976 100.843 252.976 104.009 251.023 105.962L45.9619 311.023C44.0093 312.976 40.8435 312.976 38.8909 311.023L3.53554 275.668C1.58292 273.715 1.58292 270.549 3.53554 268.596L208.597 63.5355Z" stroke="black" stroke-width="4"/>
</g>
<path id="Rectangle 6" d="M201.525 77.2828C203.478 75.3302 206.644 75.3302 208.597 77.2828L236.881 105.567C238.833 107.52 238.833 110.686 236.881 112.638L222.739 126.78C220.786 128.733 217.62 128.733 215.668 126.78L187.383 98.496C185.431 96.5434 185.431 93.3775 187.383 91.4249L201.525 77.2828Z" fill="#FF8800" stroke="black" stroke-width="2"/>
<path id="Rectangle 7" d="M169.706 109.103C171.658 107.15 174.824 107.15 176.777 109.103L205.061 137.387C207.014 139.339 207.014 142.505 205.061 144.458L190.919 158.6C188.966 160.553 185.8 160.553 183.848 158.6L155.563 130.316C153.611 128.363 153.611 125.197 155.563 123.245L169.706 109.103Z" fill="#FFA200" stroke="black" stroke-width="2"/>
<path id="Rectangle 8" d="M137.886 140.922C139.838 138.97 143.004 138.97 144.957 140.922L173.241 169.207C175.194 171.159 175.194 174.325 173.241 176.278L159.099 190.42C157.146 192.372 153.981 192.372 152.028 190.42L123.744 162.136C121.791 160.183 121.791 157.017 123.744 155.065L137.886 140.922Z" fill="#FFB700" stroke="black" stroke-width="2"/>
<path id="Rectangle 9" d="M106.066 172.742C108.019 170.79 111.184 170.79 113.137 172.742L141.421 201.026C143.374 202.979 143.374 206.145 141.421 208.098L127.279 222.24C125.327 224.192 122.161 224.192 120.208 222.24L91.9239 193.955C89.9713 192.003 89.9713 188.837 91.9239 186.884L106.066 172.742Z" fill="#FFC300" stroke="black" stroke-width="2"/>
<path id="Line 11" d="M201.525 91.4249L222.739 112.638" stroke="black" stroke-opacity="0.25" stroke-width="2"/>
<path id="Line 12" d="M169.706 123.245L190.919 144.458" stroke="black" stroke-opacity="0.25" stroke-width="2"/>
<path id="Line 13" d="M137.886 155.065L159.099 176.278" stroke="black" stroke-opacity="0.25" stroke-width="2"/>
<path id="Line 14" d="M106.066 186.884L127.279 208.098" stroke="black" stroke-opacity="0.25" stroke-width="2"/>
</g>
<g id="Green">
<g id="GreenStick" filter="url(#filter1_b_0_1)">
<rect x="13" y="302" width="60" height="300" rx="5" transform="rotate(-90 13 302)" fill="#474D77"/>
<rect x="13" y="302" width="60" height="300" rx="5" transform="rotate(-90 13 302)" stroke="black" stroke-width="4"/>
</g>
<rect id="Rectangle 6_2" x="92" y="297" width="50" height="30" rx="5" transform="rotate(-90 92 297)" fill="#D4D700" stroke="black" stroke-width="2"/>
<rect id="Rectangle 8_2" x="182" y="297" width="50" height="30" rx="5" transform="rotate(-90 182 297)" fill="#80B918" stroke="black" stroke-width="2"/>
<rect id="Rectangle 9_2" x="227" y="297" width="50" height="30" rx="5" transform="rotate(-90 227 297)" fill="#80B918" stroke="black" stroke-width="2"/>
<rect id="Rectangle 10" x="272" y="297" width="50" height="30" rx="5" transform="rotate(-90 272 297)" fill="#2B9348" stroke="black" stroke-width="2"/>
<rect id="Rectangle 7_2" x="137" y="297" width="50" height="30" rx="5" transform="rotate(-90 137 297)" fill="#AACC00" stroke="black" stroke-width="2"/>
<path id="Line 2" d="M107 287V257" stroke="black" stroke-opacity="0.25" stroke-width="2"/>
<path id="Line 6" d="M152 287V257" stroke="black" stroke-opacity="0.25" stroke-width="2"/>
<path id="Line 7" d="M197 287V257" stroke="black" stroke-opacity="0.25" stroke-width="2"/>
<path id="Line 8" d="M242 287V257" stroke="black" stroke-opacity="0.25" stroke-width="2"/>
<path id="Line 9" d="M287 287V257" stroke="black" stroke-opacity="0.25" stroke-width="2"/>
</g>
<g id="Blue">
<g id="BlueStick" filter="url(#filter2_b_0_1)">
<rect x="13" y="2" width="60" height="300" rx="5" fill="#474D77"/>
<rect x="13" y="2" width="60" height="300" rx="5" stroke="black" stroke-width="4"/>
</g>
<path id="Rectangle 1" d="M18 157C18 154.239 20.2386 152 23 152H63C65.7614 152 68 154.239 68 157V177C68 179.761 65.7614 182 63 182H23C20.2386 182 18 179.761 18 177V157Z" fill="#00B4D8" stroke="black" stroke-width="2"/>
<path id="Rectangle 5" d="M18 22C18 19.2386 20.2386 17 23 17H63C65.7614 17 68 19.2386 68 22V42C68 44.7614 65.7614 47 63 47H23C20.2386 47 18 44.7614 18 42V22Z" fill="#023E8A" stroke="black" stroke-width="2"/>
<path id="Rectangle 4" d="M18 67C18 64.2386 20.2386 62 23 62H63C65.7614 62 68 64.2386 68 67V87C68 89.7614 65.7614 92 63 92H23C20.2386 92 18 89.7614 18 87V67Z" fill="#0077B6" stroke="black" stroke-width="2"/>
<path id="Rectangle 3" d="M18 112C18 109.239 20.2386 107 23 107H63C65.7614 107 68 109.239 68 112V132C68 134.761 65.7614 137 63 137H23C20.2386 137 18 134.761 18 132V112Z" fill="#0096C7" stroke="black" stroke-width="2"/>
<path id="Rectangle 2" d="M18 202C18 199.239 20.2386 197 23 197H63C65.7614 197 68 199.239 68 202V222C68 224.761 65.7614 227 63 227H23C20.2386 227 18 224.761 18 222V202Z" fill="#90E0EF" stroke="black" stroke-width="2"/>
<path id="Line 10" d="M28 77H58" stroke="black" stroke-opacity="0.25" stroke-width="2"/>
<path id="Line 3" d="M28 122H58" stroke="black" stroke-opacity="0.25" stroke-width="2"/>
<path id="Line 4" d="M28 167H58" stroke="black" stroke-opacity="0.25" stroke-width="2"/>
<path id="Line 5" d="M28 212H58" stroke="black" stroke-opacity="0.25" stroke-width="2"/>
<path id="Line 1" d="M28 32H58" stroke="black" stroke-opacity="0.25" stroke-width="2"/>
</g>
<g id="Rivet">
<circle id="Ellipse 2" cx="43" cy="272" r="13" fill="#555555" stroke="black" stroke-width="4"/>
<circle id="Ellipse 1" cx="43" cy="272" r="10" fill="#FAFAFA"/>
<circle id="Ellipse 3" cx="43" cy="272" r="5" fill="#FF5C8A"/>
</g>
    <defs>
<filter id="filter0_b_0_1" x="-3.92892" y="56.0711" width="262.416" height="262.416" filterUnits="userSpaceOnUse" color-interpolation-filters="sRGB">
<feFlood flood-opacity="0" result="BackgroundImageFix"/>
<feGaussianBlur in="BackgroundImageFix" stdDeviation="2"/>
<feComposite in2="SourceAlpha" operator="in" result="effect1_backgroundBlur_0_1"/>
<feBlend mode="normal" in="SourceGraphic" in2="effect1_backgroundBlur_0_1" result="shape"/>
</filter>
<filter id="filter1_b_0_1" x="6.99997" y="236" width="312" height="72" filterUnits="userSpaceOnUse" color-interpolation-filters="sRGB">
<feFlood flood-opacity="0" result="BackgroundImageFix"/>
<feGaussianBlur in="BackgroundImageFix" stdDeviation="2"/>
<feComposite in2="SourceAlpha" operator="in" result="effect1_backgroundBlur_0_1"/>
<feBlend mode="normal" in="SourceGraphic" in2="effect1_backgroundBlur_0_1" result="shape"/>
</filter>
<filter id="filter2_b_0_1" x="6.99997" y="-4" width="72" height="312" filterUnits="userSpaceOnUse" color-interpolation-filters="sRGB">
<feFlood flood-opacity="0" result="BackgroundImageFix"/>
<feGaussianBlur in="BackgroundImageFix" stdDeviation="2"/>
<feComposite in2="SourceAlpha" operator="in" result="effect1_backgroundBlur_0_1"/>
<feBlend mode="normal" in="SourceGraphic" in2="effect1_backgroundBlur_0_1" result="shape"/>
</filter>
</defs>
</svg>
